<svg xmlns="http://www.w3.org/2000/svg" xmlns:xlink="http://www.w3.org/1999/xlink" width="500" zoomAndPan="magnify" viewBox="0 0 375 374.999991" height="500" preserveAspectRatio="xMidYMid meet" version="1.0"><defs><clipPath id="b44570e81b"><path d="M 23.585938 23.585938 L 355.414062 23.585938 L 355.414062 355.414062 L 23.585938 355.414062 Z M 23.585938 23.585938 " clip-rule="nonzero"/></clipPath><clipPath id="c1a1fc0080"><path d="M 189.5 23.585938 C 97.867188 23.585938 23.585938 97.867188 23.585938 189.5 C 23.585938 281.132812 97.867188 355.414062 189.5 355.414062 C 281.132812 355.414062 355.414062 281.132812 355.414062 189.5 C 355.414062 97.867188 281.132812 23.585938 189.5 23.585938 Z M 189.5 23.585938 " clip-rule="nonzero"/></clipPath><clipPath id="aedb544221"><path d="M 10 10 L 365 10 L 365 365 L 10 365 Z M 10 10 " clip-rule="nonzero"/></clipPath><clipPath id="6c8e7aee5f"><path d="M 187.496094 -62.929688 L 437.8125 187.386719 L 187.496094 437.703125 L -62.820312 187.386719 Z M 187.496094 -62.929688 " clip-rule="nonzero"/></clipPath><clipPath id="b8432a29f0"><path d="M 187.496094 -62.929688 L 437.8125 187.386719 L 187.496094 437.703125 L -62.820312 187.386719 Z M 187.496094 -62.929688 " clip-rule="nonzero"/></clipPath></defs><g clip-path="url(#b44570e81b)"><g clip-path="url(#c1a1fc0080)"><path fill="#ffffff" d="M 23.585938 23.585938 L 355.414062 23.585938 L 355.414062 355.414062 L 23.585938 355.414062 Z M 23.585938 23.585938 " fill-opacity="1" fill-rule="nonzero"/></g></g><g clip-path="url(#aedb544221)"><g clip-path="url(#6c8e7aee5f)"><g clip-path="url(#b8432a29f0)"><path fill="#4b0096" d="M 312.707031 62.285156 C 243.550781 -6.871094 131.4375 -6.871094 62.285156 62.285156 C -6.867188 131.433594 -6.871094 243.550781 62.285156 312.707031 C 131.433594 381.859375 243.554688 381.859375 312.707031 312.707031 C 381.863281 243.550781 381.859375 131.433594 312.707031 62.285156 Z M 178.914062 311.882812 L 161.308594 311.882812 L 176.921875 207.394531 C 157.363281 206.664062 139.496094 204.855469 124.488281 202.867188 L 96.484375 239.066406 L 89.148438 239.066406 L 95.453125 197.589844 C 84.007812 194.496094 77.410156 191.664062 77.410156 187.796875 C 77.410156 183.9375 84.003906 180.632812 95.457031 177.535156 L 89.152344 135.902344 L 96.492188 135.90625 L 124.496094 172.082031 C 139.503906 170.09375 157.367188 168.003906 176.929688 167.265625 L 161.304688 63.082031 L 178.914062 63.082031 L 233.664062 167 C 310.109375 168.605469 335.320312 177.210938 335.320312 187.507812 C 335.316406 197.8125 310.105469 206.382812 233.664062 207.984375 Z M 178.914062 311.882812 " fill-opacity="1" fill-rule="nonzero"/></g></g></g></svg>